<!DOCTYPE svg PUBLIC "-//W3C//DTD SVG 1.1//EN" "http://www.w3.org/Graphics/SVG/1.1/DTD/svg11.dtd">
<svg x="0" y="0" width="620" height="220" overflow="inherit" preserveAspectRatio="xMidYMid" font-size="0" xml:space="default" xmlns="http://www.w3.org/2000/svg" xmlns:xlink="http://www.w3.org/1999/xlink" xmlns:xml="http://www.w3.org/XML/1998/namespace" version="1.1">
  <line x1="60" y1="90" x2="60" y2="130" stroke="#000000" stroke-width="2" xml:space="default" />
  <line x1="60" y1="90" x2="50" y2="100" stroke="#000000" stroke-width="2" xml:space="default" />
  <line x1="60" y1="100" x2="50" y2="110" stroke="#000000" stroke-width="2" xml:space="default" />
  <line x1="60" y1="110" x2="50" y2="120" stroke="#000000" stroke-width="2" xml:space="default" />
  <line x1="60" y1="120" x2="50" y2="130" stroke="#000000" stroke-width="2" xml:space="default" />
  <line x1="220" y1="90" x2="220" y2="130" stroke="#000000" stroke-width="2" xml:space="default" />
  <line x1="220" y1="100" x2="230" y2="90" stroke="#000000" stroke-width="2" xml:space="default" />
  <line x1="220" y1="110" x2="230" y2="100" stroke="#000000" stroke-width="2" xml:space="default" />
  <line x1="220" y1="120" x2="230" y2="110" stroke="#000000" stroke-width="2" xml:space="default" />
  <line x1="220" y1="130" x2="230" y2="120" stroke="#000000" stroke-width="2" xml:space="default" />
  <line x1="60" y1="110" x2="220" y2="110" stroke="#000000" stroke-width="2" xml:space="default" />
  <line x1="140" y1="80" x2="140" y2="100" stroke="#000000" stroke-width="2" xml:space="default" />
  <path d="M140 105 L136 98 L144 98 z" stroke="#000000" stroke-width="2" xml:space="default" style="fill:#000000;" />
  <line x1="60" y1="100" x2="140" y2="120" stroke="#000000" stroke-width="2" xml:space="default" />
  <line x1="140" y1="120" x2="220" y2="100" stroke="#000000" stroke-width="2" xml:space="default" />
  <line x1="310" y1="110" x2="470" y2="110" stroke="#000000" stroke-width="2" xml:space="default" />
  <circle cx="310" cy="110" r="5" stroke="#000000" stroke-width="2" xml:space="default" style="fill:#000000;" />
  <circle cx="470" cy="110" r="5" stroke="#000000" stroke-width="2" xml:space="default" style="fill:#000000;" />
  <path d="M324 124 A20 20 45 1 1 324 96" stroke="#000000" stroke-width="2" xml:space="default" style="fill:#FFFFFF;" />
  <path d="M456 124 A20 20 135 1 0 456 96" stroke="#000000" stroke-width="2" xml:space="default" style="fill:#FFFFFF;" />
  <path d="M331 103 L314 98 L327 86 z" stroke="#000000" stroke-width="2" xml:space="default" style="fill:#000000;" />
  <path d="M463 103 L446 98 L458 86 z" stroke="#000000" stroke-width="2" xml:space="default" style="fill:#000000;" />
  <line x1="260" y1="110" x2="250" y2="110" stroke="#000000" stroke-width="2" xml:space="default" />
  <line x1="250" y1="110" x2="270" y2="110" stroke="#000000" stroke-width="2" xml:space="default" />
  <line x1="260" y1="110" x2="260" y2="100" stroke="#000000" stroke-width="2" xml:space="default" />
  <line x1="260" y1="100" x2="260" y2="120" stroke="#000000" stroke-width="2" xml:space="default" />
  <text text-anchor="middle" xml:space="default" x="130" y="165" font-size="10" color="#000000" style="fill:#000000;">A.両端固定による応力</text>
  <text text-anchor="middle" xml:space="default" x="395" y="165" font-size="10" color="#000000" style="fill:#000000;">B.固定端モーメントを解除する節点モーメント</text>
</svg>