<!DOCTYPE svg PUBLIC "-//W3C//DTD SVG 1.1//EN" "http://www.w3.org/Graphics/SVG/1.1/DTD/svg11.dtd">
<svg x="0" y="0" width="420" height="170" overflow="inherit" preserveAspectRatio="xMidYMid" font-size="0" xml:space="default" xmlns="http://www.w3.org/2000/svg" xmlns:xlink="http://www.w3.org/1999/xlink" xmlns:xml="http://www.w3.org/XML/1998/namespace" version="1.1">
  <line x1="30" y1="30" x2="150" y2="30" stroke="#000000" xml:space="default" />
  <line x1="30" y1="70" x2="150" y2="70" stroke="#000000" xml:space="default" />
  <line x1="30" y1="30" x2="30" y2="70" stroke="#000000" xml:space="default" />
  <line x1="70" y1="30" x2="70" y2="70" stroke="#000000" xml:space="default" />
  <line x1="110" y1="30" x2="110" y2="70" stroke="#000000" xml:space="default" />
  <line x1="150" y1="30" x2="150" y2="70" stroke="#000000" xml:space="default" />
  <line x1="30" y1="30" x2="150" y2="30" stroke="#000000" stroke-width="3" xml:space="default" />
  <rect x="25" y="25" width="10" height="10" stroke="#000000" stroke-width="2" transform="rotate(0, 10, 10)" xml:space="default" style="fill:#FFFFFF;" />
  <rect x="25" y="65" width="10" height="10" stroke="#000000" stroke-width="2" transform="rotate(0, 10, 50)" xml:space="default" style="fill:#FFFFFF;" />
  <rect x="65" y="25" width="10" height="10" stroke="#000000" stroke-width="2" transform="rotate(0, 50, 10)" xml:space="default" style="fill:#FFFFFF;" />
  <rect x="65" y="65" width="10" height="10" stroke="#000000" stroke-width="2" transform="rotate(0, 50, 50)" xml:space="default" style="fill:#FFFFFF;" />
  <rect x="105" y="25" width="10" height="10" stroke="#000000" stroke-width="2" transform="rotate(0, 90, 10)" xml:space="default" style="fill:#FFFFFF;" />
  <rect x="105" y="65" width="10" height="10" stroke="#000000" stroke-width="2" transform="rotate(0, 90, 50)" xml:space="default" style="fill:#FFFFFF;" />
  <rect x="145" y="25" width="10" height="10" stroke="#000000" stroke-width="2" transform="rotate(0, 130, 10)" xml:space="default" style="fill:#FFFFFF;" />
  <rect x="145" y="65" width="10" height="10" stroke="#000000" stroke-width="2" transform="rotate(0, 130, 50)" xml:space="default" style="fill:#FFFFFF;" />
  <rect x="50" y="30" width="120" height="40" stroke="#0000FF" fill-opacity="0" transform="rotate(0, 80, 40)" xml:space="default" style="fill:#FFFFFF;" />
  <text text-anchor="middle" xml:space="default" x="90" y="95" font-size="10" color="#000000" style="fill:#000000;">平面フレーム</text>
  <line x1="230" y1="30" x2="350" y2="30" stroke="#000000" xml:space="default" />
  <line x1="230" y1="70" x2="350" y2="70" stroke="#000000" xml:space="default" />
  <line x1="230" y1="30" x2="230" y2="70" stroke="#000000" xml:space="default" />
  <line x1="270" y1="30" x2="270" y2="70" stroke="#000000" xml:space="default" />
  <line x1="310" y1="30" x2="310" y2="70" stroke="#000000" xml:space="default" />
  <line x1="350" y1="30" x2="350" y2="70" stroke="#000000" xml:space="default" />
  <line x1="230" y1="30" x2="350" y2="30" stroke="#000000" stroke-width="3" xml:space="default" />
  <rect x="225" y="25" width="10" height="10" stroke="#000000" stroke-width="2" transform="rotate(0, 210, 10)" xml:space="default" style="fill:#FFFFFF;" />
  <rect x="225" y="65" width="10" height="10" stroke="#000000" stroke-width="2" transform="rotate(0, 210, 50)" xml:space="default" style="fill:#FFFFFF;" />
  <rect x="265" y="25" width="10" height="10" stroke="#000000" stroke-width="2" transform="rotate(0, 250, 10)" xml:space="default" style="fill:#FFFFFF;" />
  <rect x="265" y="65" width="10" height="10" stroke="#000000" stroke-width="2" transform="rotate(0, 250, 50)" xml:space="default" style="fill:#FFFFFF;" />
  <rect x="305" y="25" width="10" height="10" stroke="#000000" stroke-width="2" transform="rotate(0, 290, 10)" xml:space="default" style="fill:#FFFFFF;" />
  <rect x="305" y="65" width="10" height="10" stroke="#000000" stroke-width="2" transform="rotate(0, 290, 50)" xml:space="default" style="fill:#FFFFFF;" />
  <rect x="345" y="25" width="10" height="10" stroke="#000000" stroke-width="2" transform="rotate(0, 330, 10)" xml:space="default" style="fill:#FFFFFF;" />
  <rect x="345" y="65" width="10" height="10" stroke="#000000" stroke-width="2" transform="rotate(0, 330, 50)" xml:space="default" style="fill:#FFFFFF;" />
  <rect x="250" y="30" width="120" height="40" stroke="#0000FF" fill-opacity="0" transform="rotate(-8, 280, 20)" xml:space="default" style="fill:#FFFFFF;" />
  <text text-anchor="middle" xml:space="default" x="290" y="95" font-size="10" color="#000000" style="fill:#000000;">立体フレーム</text>
</svg>